<svg width="21" height="21" viewBox="0 0 21 21" fill="none" xmlns="http://www.w3.org/2000/svg">
<path d="M14.5162 16.0374L12.3112 10.8878C12.0947 10.3838 11.9175 9.52284 11.9175 8.97422C11.9175 8.42559 12.2541 7.97672 12.6656 7.97672C13.0771 7.97672 13.4137 7.63941 13.4137 7.2286C13.4137 6.81778 12.9648 6.48047 12.4162 6.48047H7.92747C7.37884 6.48047 6.92997 6.81647 6.92997 7.2286C6.92997 7.64072 7.26662 7.97672 7.67809 7.97672C8.08956 7.97672 8.42622 8.42559 8.42622 8.97422C8.42622 9.52284 8.24903 10.3838 8.03247 10.8885L5.82747 16.0387C5.6109 16.5427 5.43372 17.1806 5.43372 17.4543C5.43372 17.7279 5.65815 18.1781 5.93247 18.4518C6.20678 18.7254 6.88009 18.9505 7.42872 18.9505H12.915C13.4629 18.9505 14.1356 18.7274 14.4112 18.4518C14.6868 18.1762 14.91 17.7286 14.91 17.4543C14.91 17.18 14.7328 16.5421 14.5162 16.0387V16.0374ZM10.8826 5.00391C10.8826 5.1924 10.9574 5.37318 11.0907 5.50646C11.224 5.63975 11.4048 5.71463 11.5933 5.71463C11.7818 5.71463 11.9625 5.63975 12.0958 5.50646C12.2291 5.37318 12.304 5.1924 12.304 5.00391C12.3039 4.81541 12.2289 4.63467 12.0956 4.50145C11.9623 4.36823 11.7814 4.29343 11.593 4.29352C11.4045 4.2936 11.2237 4.36857 11.0905 4.50191C10.9573 4.63526 10.8825 4.81607 10.8826 5.00456V5.00391ZM8.96959 5.1135C9.05661 5.1135 9.14007 5.07893 9.20161 5.0174C9.26315 4.95586 9.29772 4.8724 9.29772 4.78538C9.29772 4.69835 9.26315 4.61489 9.20161 4.55336C9.14007 4.49182 9.05661 4.45725 8.96959 4.45725C8.88257 4.45725 8.79911 4.49182 8.73757 4.55336C8.67604 4.61489 8.64147 4.69835 8.64147 4.78538C8.64147 4.8724 8.67604 4.95586 8.73757 5.0174C8.79911 5.07893 8.88257 5.1135 8.96959 5.1135ZM10.2276 3.47288C10.3684 3.47987 10.509 3.45817 10.6411 3.40911C10.7732 3.36005 10.8939 3.28464 10.996 3.18748C11.098 3.09031 11.1793 2.97341 11.2347 2.84389C11.2902 2.71436 11.3188 2.57491 11.3187 2.434C11.3186 2.29309 11.2899 2.15368 11.2342 2.02422C11.1786 1.89476 11.0972 1.77797 10.995 1.68093C10.8929 1.5839 10.772 1.50864 10.6399 1.45975C10.5077 1.41085 10.367 1.38934 10.2263 1.3965C9.9622 1.41295 9.7143 1.5295 9.53315 1.7224C9.352 1.9153 9.25124 2.17003 9.25141 2.43465C9.25158 2.69927 9.35266 2.95387 9.53405 3.14654C9.71544 3.33921 9.96349 3.45545 10.2276 3.47156V3.47288Z" fill="white"/>
</svg>
