<svg width="17" height="20" viewBox="0 0 17 20" fill="none" xmlns="http://www.w3.org/2000/svg">
<path d="M9.03128 5.75891C8.33771 6.1607 7.37297 6.7206 6.13707 7.4386C4.90118 8.15661 3.93644 8.72023 3.24287 9.12945C2.38696 8.8616 1.67125 8.37796 1.09573 7.67856L0.973985 7.75668C0.885443 7.80877 0.789523 7.82179 0.686224 7.79575C0.582926 7.76971 0.501762 7.71204 0.442735 7.62276L0.0774999 6.98659C0.0258505 6.89731 0.0147828 6.79686 0.0442967 6.68526C0.0738107 6.57365 0.132838 6.48808 0.22138 6.42856L0.343125 6.36159C-0.0479342 5.33481 -0.0571573 4.29128 0.315456 3.23101C0.688069 2.17074 1.35767 1.36159 2.32425 0.803556C3.30558 0.238079 4.33857 0.0557875 5.42321 0.25668C6.50784 0.457573 7.39695 0.985847 8.09053 1.8415L8.21227 1.76338C8.31557 1.71129 8.41887 1.70199 8.52217 1.73548C8.62547 1.76896 8.70663 1.83034 8.76566 1.91963L9.11982 2.55579C9.17147 2.64507 9.18439 2.7418 9.15856 2.84597C9.13274 2.95013 9.07555 3.03198 8.98701 3.0915L8.84313 3.16963C9.15303 3.99552 9.21575 4.85862 9.03128 5.75891ZM11.8314 18.3594C12.1044 18.8876 12.4457 19.2931 12.8552 19.5759C13.2647 19.8586 13.7055 20 14.1778 20C15.0042 20 15.6848 19.7266 16.2198 19.1797C16.7547 18.6328 17.0185 17.9539 17.0111 17.1428C17.0111 16.8824 16.9908 16.622 16.9502 16.3616C16.9097 16.1012 16.8672 15.8817 16.823 15.7031C16.7787 15.5245 16.7104 15.3218 16.6182 15.0949C16.526 14.8679 16.4577 14.708 16.4135 14.6149C16.3692 14.5219 16.2954 14.3768 16.1921 14.1797C16.0888 13.9825 16.0335 13.8728 16.0261 13.8504C15.8638 13.5379 15.6959 13.3259 15.5225 13.2143C15.3491 13.1027 15.2071 13.0766 15.0964 13.1362C15.0226 13.1734 14.971 13.244 14.9414 13.3482C14.9119 13.4524 14.9156 13.5882 14.9525 13.7556C14.9894 13.923 15.0595 14.0997 15.1628 14.2857C15.3768 14.6577 15.5889 15.1469 15.7992 15.7533C16.0095 16.3597 16.1146 16.8527 16.1146 17.2321C16.1146 17.7158 15.9136 18.1362 15.5114 18.4933C15.1093 18.8504 14.6463 19.029 14.1224 19.029C13.6945 19.029 13.237 18.6272 12.75 17.8237L12.8386 17.7678C13.0378 17.6488 13.1854 17.5391 13.2813 17.4386C13.3772 17.3382 13.4362 17.2061 13.4584 17.0424C13.4805 16.8787 13.4362 16.6927 13.3256 16.4844L9.14196 6.83034L7.33792 7.87945L8.25654 9.47544C8.30081 9.54984 8.31004 9.63355 8.28421 9.72655C8.25839 9.81956 8.20858 9.88838 8.1348 9.93302L7.70316 10.1786L7.27152 10.4241C7.19035 10.4762 7.10734 10.4892 7.02249 10.4632C6.93764 10.4371 6.86939 10.3832 6.81774 10.3013L5.91019 8.71651L4.10615 9.76561L10.3041 18.2478C10.5107 18.5231 10.721 18.6737 10.9349 18.6998C11.1489 18.7258 11.3887 18.6495 11.6543 18.471L11.8314 18.3594Z" fill="white"/>
</svg>
